<?xml version="1.0" encoding="UTF-8" standalone="yes"?>
<!-- Created with qrencode 4.1.1 (https://fukuchi.org/works/qrencode/index.html) -->
<svg width="3.70cm" height="3.70cm" viewBox="0 0 35 35" preserveAspectRatio="none" version="1.1" xmlns="http://www.w3.org/2000/svg">
	<g id="QRcode">
		<rect x="0" y="0" width="35" height="35" fill="#ffffff"/>
		<path style="stroke:#000000" transform="translate(1,1.5)" d="M0,0h1M1,0h1M2,0h1M3,0h1M4,0h1M5,0h1M6,0h1M10,0h1M12,0h1M13,0h1M18,0h1M19,0h1M20,0h1M23,0h1M26,0h1M27,0h1M28,0h1M29,0h1M30,0h1M31,0h1M32,0h1M0,1h1M6,1h1M8,1h1M10,1h1M14,1h1M15,1h1M16,1h1M17,1h1M20,1h1M21,1h1M22,1h1M26,1h1M32,1h1M0,2h1M2,2h1M3,2h1M4,2h1M6,2h1M12,2h1M14,2h1M16,2h1M19,2h1M20,2h1M21,2h1M24,2h1M26,2h1M28,2h1M29,2h1M30,2h1M32,2h1M0,3h1M2,3h1M3,3h1M4,3h1M6,3h1M8,3h1M9,3h1M10,3h1M12,3h1M13,3h1M14,3h1M15,3h1M17,3h1M18,3h1M19,3h1M22,3h1M23,3h1M24,3h1M26,3h1M28,3h1M29,3h1M30,3h1M32,3h1M0,4h1M2,4h1M3,4h1M4,4h1M6,4h1M9,4h1M14,4h1M16,4h1M20,4h1M21,4h1M23,4h1M26,4h1M28,4h1M29,4h1M30,4h1M32,4h1M0,5h1M6,5h1M8,5h1M9,5h1M11,5h1M12,5h1M15,5h1M21,5h1M22,5h1M24,5h1M26,5h1M32,5h1M0,6h1M1,6h1M2,6h1M3,6h1M4,6h1M5,6h1M6,6h1M8,6h1M10,6h1M12,6h1M14,6h1M16,6h1M18,6h1M20,6h1M22,6h1M24,6h1M26,6h1M27,6h1M28,6h1M29,6h1M30,6h1M31,6h1M32,6h1M9,7h1M10,7h1M11,7h1M14,7h1M18,7h1M19,7h1M21,7h1M22,7h1M23,7h1M0,8h1M1,8h1M2,8h1M3,8h1M4,8h1M6,8h1M7,8h1M8,8h1M9,8h1M11,8h1M13,8h1M14,8h1M15,8h1M20,8h1M24,8h1M25,8h1M27,8h1M29,8h1M31,8h1M2,9h1M4,9h1M8,9h1M10,9h1M12,9h1M14,9h1M15,9h1M16,9h1M19,9h1M23,9h1M26,9h1M30,9h1M31,9h1M32,9h1M1,10h1M4,10h1M6,10h1M8,10h1M10,10h1M15,10h1M16,10h1M18,10h1M20,10h1M22,10h1M25,10h1M26,10h1M28,10h1M29,10h1M31,10h1M0,11h1M1,11h1M4,11h1M7,11h1M8,11h1M12,11h1M14,11h1M15,11h1M18,11h1M19,11h1M21,11h1M22,11h1M23,11h1M25,11h1M26,11h1M30,11h1M0,12h1M1,12h1M4,12h1M6,12h1M9,12h1M10,12h1M12,12h1M13,12h1M14,12h1M15,12h1M20,12h1M22,12h1M23,12h1M24,12h1M25,12h1M27,12h1M28,12h1M29,12h1M0,13h1M1,13h1M5,13h1M7,13h1M8,13h1M9,13h1M13,13h1M15,13h1M16,13h1M18,13h1M20,13h1M21,13h1M23,13h1M24,13h1M26,13h1M31,13h1M32,13h1M1,14h1M2,14h1M3,14h1M6,14h1M7,14h1M8,14h1M9,14h1M11,14h1M12,14h1M15,14h1M16,14h1M21,14h1M22,14h1M25,14h1M26,14h1M27,14h1M28,14h1M31,14h1M0,15h1M1,15h1M2,15h1M5,15h1M9,15h1M10,15h1M11,15h1M14,15h1M15,15h1M18,15h1M19,15h1M21,15h1M25,15h1M26,15h1M28,15h1M30,15h1M0,16h1M1,16h1M4,16h1M5,16h1M6,16h1M8,16h1M9,16h1M11,16h1M14,16h1M16,16h1M17,16h1M20,16h1M23,16h1M24,16h1M25,16h1M27,16h1M28,16h1M31,16h1M1,17h1M2,17h1M3,17h1M5,17h1M10,17h1M12,17h1M14,17h1M17,17h1M18,17h1M20,17h1M23,17h1M26,17h1M27,17h1M29,17h1M31,17h1M32,17h1M1,18h1M2,18h1M3,18h1M4,18h1M5,18h1M6,18h1M7,18h1M8,18h1M10,18h1M14,18h1M15,18h1M17,18h1M22,18h1M25,18h1M29,18h1M31,18h1M1,19h1M3,19h1M5,19h1M10,19h1M12,19h1M19,19h1M20,19h1M21,19h1M22,19h1M23,19h1M25,19h1M26,19h1M30,19h1M0,20h1M1,20h1M3,20h1M6,20h1M8,20h1M9,20h1M12,20h1M14,20h1M15,20h1M16,20h1M23,20h1M24,20h1M25,20h1M27,20h1M28,20h1M31,20h1M0,21h1M1,21h1M3,21h1M5,21h1M7,21h1M9,21h1M20,21h1M21,21h1M22,21h1M23,21h1M26,21h1M29,21h1M31,21h1M32,21h1M0,22h1M2,22h1M3,22h1M4,22h1M5,22h1M6,22h1M7,22h1M9,22h1M10,22h1M11,22h1M12,22h1M14,22h1M15,22h1M17,22h1M21,22h1M25,22h1M26,22h1M27,22h1M28,22h1M29,22h1M31,22h1M0,23h1M2,23h1M8,23h1M9,23h1M11,23h1M15,23h1M18,23h1M19,23h1M21,23h1M22,23h1M23,23h1M24,23h1M29,23h1M30,23h1M0,24h1M3,24h1M4,24h1M5,24h1M6,24h1M7,24h1M8,24h1M9,24h1M10,24h1M11,24h1M17,24h1M21,24h1M22,24h1M24,24h1M25,24h1M26,24h1M27,24h1M28,24h1M32,24h1M8,25h1M10,25h1M12,25h1M13,25h1M16,25h1M17,25h1M18,25h1M19,25h1M20,25h1M22,25h1M24,25h1M28,25h1M29,25h1M30,25h1M32,25h1M0,26h1M1,26h1M2,26h1M3,26h1M4,26h1M5,26h1M6,26h1M8,26h1M9,26h1M13,26h1M14,26h1M15,26h1M16,26h1M20,26h1M21,26h1M23,26h1M24,26h1M26,26h1M28,26h1M30,26h1M31,26h1M0,27h1M6,27h1M10,27h1M12,27h1M13,27h1M15,27h1M16,27h1M20,27h1M21,27h1M23,27h1M24,27h1M28,27h1M29,27h1M30,27h1M31,27h1M0,28h1M2,28h1M3,28h1M4,28h1M6,28h1M8,28h1M12,28h1M14,28h1M15,28h1M16,28h1M17,28h1M21,28h1M22,28h1M24,28h1M25,28h1M26,28h1M27,28h1M28,28h1M29,28h1M0,29h1M2,29h1M3,29h1M4,29h1M6,29h1M8,29h1M9,29h1M17,29h1M20,29h1M22,29h1M25,29h1M28,29h1M30,29h1M0,30h1M2,30h1M3,30h1M4,30h1M6,30h1M8,30h1M11,30h1M12,30h1M15,30h1M16,30h1M17,30h1M18,30h1M20,30h1M21,30h1M23,30h1M26,30h1M31,30h1M0,31h1M6,31h1M8,31h1M11,31h1M14,31h1M16,31h1M18,31h1M20,31h1M21,31h1M25,31h1M29,31h1M30,31h1M0,32h1M1,32h1M2,32h1M3,32h1M4,32h1M5,32h1M6,32h1M8,32h1M10,32h1M11,32h1M17,32h1M19,32h1M24,32h1M25,32h1M27,32h1M28,32h1M31,32h1"/>
	</g>
</svg>
