<?xml version="1.0" encoding="UTF-8" standalone="yes"?>
<!-- Created with qrencode 4.1.1 (https://fukuchi.org/works/qrencode/index.html) -->
<svg width="3.28cm" height="3.28cm" viewBox="0 0 31 31" preserveAspectRatio="none" version="1.1" xmlns="http://www.w3.org/2000/svg">
	<g id="QRcode">
		<rect x="0" y="0" width="31" height="31" fill="#ffffff"/>
		<path style="stroke:#000000" transform="translate(1,1.5)" d="M0,0h1M1,0h1M2,0h1M3,0h1M4,0h1M5,0h1M6,0h1M8,0h1M9,0h1M10,0h1M11,0h1M13,0h1M14,0h1M17,0h1M22,0h1M23,0h1M24,0h1M25,0h1M26,0h1M27,0h1M28,0h1M0,1h1M6,1h1M11,1h1M12,1h1M13,1h1M16,1h1M19,1h1M22,1h1M28,1h1M0,2h1M2,2h1M3,2h1M4,2h1M6,2h1M9,2h1M11,2h1M13,2h1M15,2h1M19,2h1M20,2h1M22,2h1M24,2h1M25,2h1M26,2h1M28,2h1M0,3h1M2,3h1M3,3h1M4,3h1M6,3h1M10,3h1M11,3h1M13,3h1M15,3h1M16,3h1M17,3h1M19,3h1M20,3h1M22,3h1M24,3h1M25,3h1M26,3h1M28,3h1M0,4h1M2,4h1M3,4h1M4,4h1M6,4h1M10,4h1M11,4h1M12,4h1M14,4h1M17,4h1M18,4h1M19,4h1M20,4h1M22,4h1M24,4h1M25,4h1M26,4h1M28,4h1M0,5h1M6,5h1M9,5h1M11,5h1M14,5h1M17,5h1M22,5h1M28,5h1M0,6h1M1,6h1M2,6h1M3,6h1M4,6h1M5,6h1M6,6h1M8,6h1M10,6h1M12,6h1M14,6h1M16,6h1M18,6h1M20,6h1M22,6h1M23,6h1M24,6h1M25,6h1M26,6h1M27,6h1M28,6h1M8,7h1M9,7h1M12,7h1M13,7h1M15,7h1M16,7h1M20,7h1M0,8h1M1,8h1M3,8h1M4,8h1M6,8h1M9,8h1M12,8h1M16,8h1M17,8h1M19,8h1M22,8h1M28,8h1M2,9h1M4,9h1M5,9h1M10,9h1M13,9h1M14,9h1M15,9h1M17,9h1M18,9h1M19,9h1M21,9h1M23,9h1M24,9h1M26,9h1M27,9h1M0,10h1M4,10h1M6,10h1M9,10h1M12,10h1M15,10h1M16,10h1M17,10h1M23,10h1M24,10h1M26,10h1M0,11h1M1,11h1M2,11h1M7,11h1M14,11h1M15,11h1M16,11h1M17,11h1M18,11h1M19,11h1M21,11h1M22,11h1M23,11h1M25,11h1M28,11h1M0,12h1M2,12h1M6,12h1M7,12h1M8,12h1M9,12h1M10,12h1M13,12h1M15,12h1M18,12h1M19,12h1M22,12h1M23,12h1M28,12h1M3,13h1M4,13h1M5,13h1M10,13h1M12,13h1M13,13h1M15,13h1M16,13h1M17,13h1M18,13h1M22,13h1M23,13h1M24,13h1M25,13h1M26,13h1M27,13h1M28,13h1M3,14h1M4,14h1M5,14h1M6,14h1M7,14h1M10,14h1M13,14h1M15,14h1M16,14h1M17,14h1M19,14h1M20,14h1M21,14h1M22,14h1M24,14h1M26,14h1M28,14h1M0,15h1M1,15h1M2,15h1M5,15h1M8,15h1M9,15h1M10,15h1M12,15h1M14,15h1M15,15h1M16,15h1M19,15h1M23,15h1M24,15h1M26,15h1M28,15h1M0,16h1M3,16h1M4,16h1M5,16h1M6,16h1M7,16h1M8,16h1M9,16h1M11,16h1M12,16h1M13,16h1M15,16h1M16,16h1M17,16h1M19,16h1M20,16h1M21,16h1M25,16h1M0,17h1M1,17h1M2,17h1M7,17h1M11,17h1M13,17h1M14,17h1M15,17h1M18,17h1M19,17h1M24,17h1M26,17h1M27,17h1M0,18h1M1,18h1M3,18h1M4,18h1M5,18h1M6,18h1M7,18h1M8,18h1M9,18h1M12,18h1M13,18h1M14,18h1M15,18h1M17,18h1M19,18h1M24,18h1M25,18h1M28,18h1M0,19h1M1,19h1M2,19h1M3,19h1M5,19h1M10,19h1M11,19h1M13,19h1M16,19h1M19,19h1M22,19h1M25,19h1M26,19h1M0,20h1M1,20h1M3,20h1M4,20h1M5,20h1M6,20h1M11,20h1M12,20h1M14,20h1M15,20h1M17,20h1M20,20h1M21,20h1M22,20h1M23,20h1M24,20h1M25,20h1M26,20h1M27,20h1M8,21h1M12,21h1M15,21h1M17,21h1M18,21h1M20,21h1M24,21h1M25,21h1M0,22h1M1,22h1M2,22h1M3,22h1M4,22h1M5,22h1M6,22h1M10,22h1M11,22h1M12,22h1M15,22h1M16,22h1M17,22h1M18,22h1M19,22h1M20,22h1M22,22h1M24,22h1M25,22h1M0,23h1M6,23h1M9,23h1M10,23h1M15,23h1M16,23h1M17,23h1M19,23h1M20,23h1M24,23h1M27,23h1M28,23h1M0,24h1M2,24h1M3,24h1M4,24h1M6,24h1M8,24h1M9,24h1M10,24h1M12,24h1M15,24h1M16,24h1M19,24h1M20,24h1M21,24h1M22,24h1M23,24h1M24,24h1M25,24h1M0,25h1M2,25h1M3,25h1M4,25h1M6,25h1M8,25h1M10,25h1M11,25h1M14,25h1M15,25h1M16,25h1M17,25h1M18,25h1M21,25h1M28,25h1M0,26h1M2,26h1M3,26h1M4,26h1M6,26h1M10,26h1M13,26h1M15,26h1M17,26h1M20,26h1M21,26h1M23,26h1M24,26h1M26,26h1M27,26h1M28,26h1M0,27h1M6,27h1M8,27h1M10,27h1M11,27h1M14,27h1M16,27h1M18,27h1M22,27h1M23,27h1M25,27h1M26,27h1M28,27h1M0,28h1M1,28h1M2,28h1M3,28h1M4,28h1M5,28h1M6,28h1M8,28h1M10,28h1M12,28h1M13,28h1M19,28h1M20,28h1M22,28h1M24,28h1"/>
	</g>
</svg>
